<svg width="195" height="34" viewBox="0 0 195 34" fill="none" xmlns="http://www.w3.org/2000/svg">
<path fill-rule="evenodd" clip-rule="evenodd" d="M7.26983 3.05819C6.05377 3.90849 4.95412 4.91383 3.99953 6.04554C7.90044 5.68338 12.8564 6.27474 18.6102 9.15168C24.7545 12.2238 29.7022 12.3276 33.1456 11.6634C32.8331 10.7175 32.4397 9.80831 31.9739 8.94403C28.0321 9.35976 22.9789 8.80947 17.0897 5.86498C13.3501 3.99515 10.0536 3.22491 7.26983 3.05819ZM29.6713 5.66665C26.5585 2.18875 22.0349 0 17 0C15.5214 0 14.0868 0.188791 12.7191 0.543558C14.5714 1.04897 16.5392 1.78839 18.6102 2.82393C22.9219 4.97975 26.6444 5.67389 29.6713 5.66665ZM33.8818 14.9839C29.7219 15.8053 23.9775 15.6366 17.0897 12.1927C10.6505 8.97309 5.52537 9.01364 2.06882 9.78179C1.8904 9.8214 1.71619 9.86305 1.54618 9.9064C1.09363 10.8906 0.73239 11.9256 0.473197 13.0003C0.750029 12.9264 1.03609 12.8561 1.33124 12.7904C5.52464 11.8586 11.4496 11.8991 18.6102 15.4794C25.0496 18.6991 30.1747 18.6585 33.6313 17.8904C33.7497 17.8641 33.8664 17.8369 33.9811 17.8088C33.9937 17.5408 34 17.2711 34 17C34 16.3179 33.9599 15.6451 33.8818 14.9839ZM33.4261 21.3964C29.3066 22.1167 23.7294 21.8402 17.0897 18.5205C10.6505 15.3008 5.52537 15.3414 2.06882 16.1095C1.30156 16.28 0.611354 16.4876 0.0024905 16.7068C0.000830451 16.8043 0 16.9021 0 17C0 26.3888 7.61116 34 17 34C24.8685 34 31.4885 28.6543 33.4261 21.3964Z" fill="white"/>
<path d="M52.024 14.632C54.348 14.968 60.368 16.256 60.368 20.232C60.368 24.796 57.512 26 51.828 26C44.996 26 43.288 22.5 43.288 22.5L44.408 21.184C44.408 21.184 46.704 25.58 51.828 25.58C55.804 25.58 57.736 23.172 57.736 20.316C57.736 17.46 55.16 15.668 51.604 15.052C48.972 14.632 43.288 14.66 43.288 10.684C43.288 6.708 46.48 5.42 51.604 5.42C54.432 5.42 57.764 6.008 59.472 7.212L58.156 8.92C56.532 6.484 53.704 5.868 51.604 5.868C48.188 5.868 45.892 7.828 45.892 10.684C45.892 13.82 48.972 14.184 52.024 14.632ZM70.7628 10.236C75.1308 10.236 78.6588 12.868 78.6588 18.132C78.6588 23.396 75.1308 26.028 70.7628 26.028C66.3948 26.028 62.8948 23.396 62.8948 18.132C62.8948 12.868 66.3948 10.236 70.7628 10.236ZM71.6308 25.58C75.1308 25.58 76.0268 21.632 76.0268 18.132C76.0268 12.868 72.5268 10.684 69.8948 10.684C66.3948 10.684 65.4988 14.632 65.4988 18.132C65.4988 23.396 68.9988 25.58 71.6308 25.58ZM93.2512 10.684L95.8832 10.236V25.58L93.2512 26V22.78C92.3272 24.824 90.2552 26.084 87.9872 26C84.4872 26 81.8832 24.264 81.8832 20.316V10.684L84.4872 10.236V20.316C84.4872 23.48 85.3832 25.58 88.4352 25.58C91.5152 25.58 93.2512 22.948 93.2512 20.316V10.684ZM106.681 24.264L107.549 25.132C106.961 25.692 106.177 26 105.365 26C102.313 26 100.549 24.264 100.549 20.316V11.132H98.8127V10.684H100.549V8.052L103.181 7.604V10.684H106.681V11.132H103.181V20.764C103.181 23.816 103.629 25.58 105.365 25.58C106.233 25.58 106.681 24.264 106.681 24.264ZM118.111 10.236C121.611 10.236 124.243 12 124.243 15.948V25.58L121.611 26V15.948C121.611 12.784 120.743 10.684 117.663 10.684C114.611 10.684 112.847 13.316 112.847 15.948V25.58L110.243 26V5.868L112.847 5.42V13.484C113.799 11.44 115.871 10.18 118.111 10.236ZM137.505 5.42C140.921 5.42 144.505 7.184 144.505 10.684C144.505 14.184 141.005 15.948 137.953 15.948H130.925V25.58L128.321 26V5.868L130.925 5.42H137.505ZM137.953 15.5C141.005 15.5 141.873 12.924 141.873 10.684C141.901 9.396 141.369 8.192 140.473 7.268C139.577 6.372 138.345 5.868 137.057 5.868H130.925V15.5H137.953ZM158.769 10.684L161.401 10.236V25.58L158.769 26V24.32C157.257 25.468 155.409 26.056 153.505 26C149.137 26 145.637 23.396 145.637 18.132C145.637 12.868 149.137 10.236 153.505 10.236C155.409 10.18 157.257 10.796 158.769 11.944V10.684ZM154.373 25.58C156.137 25.496 157.761 24.6 158.769 23.172V13.512C157.173 11.804 154.961 10.796 152.637 10.684C149.137 10.684 148.241 14.632 148.241 18.132C148.241 23.396 151.741 25.58 154.373 25.58ZM172.532 10.236C175.584 10.236 177.348 12.448 177.348 15.5L174.716 15.948C174.716 13.736 174.268 10.684 172.084 10.684C169.9 10.684 168.136 13.316 168.136 15.948V25.58L165.532 26V11.132L168.136 10.684V13.288C168.808 11.44 170.572 10.236 172.532 10.236ZM185.676 16.872C190.128 17.376 192.928 23.06 192.928 25.58L190.996 26.028C190.996 23.844 189.456 17.432 185.2 17.264L182.848 19.224V25.552L180.244 26V5.84L182.848 5.42V18.664L185.06 16.816L192.9 10.236L193.208 10.572L185.676 16.872Z" fill="white"/>
</svg>
